<svg width="1em" height="1.3em" class="w-full h-full z-0" viewBox="119.17 70 241.33 337.5"
    fill="none" xmlns="http://www.w3.org/2000/svg">
    <path d="m271.67 72.5 86.33 66V306l-145 99-91.33-65V168.75z" fill="#fff"
        stroke="#936A4E" stroke-width="5" stroke-linejoin="round"></path>
    <path
        d="M131.5 225.5v111.249l79 56V281.5s-13.831-31.903-32.164-43.935S131.5 225.5 131.5 225.5Z"
        fill="#FFF5EB" stroke="#936A4E" stroke-width="2.5" stroke-linejoin="round"></path>
    <path d="M220 232.5 136.67 170l135-86.25L349 143v157.5l-129 88z" fill="#FFF5EB"
        stroke="#936A4E" stroke-width="2.5" stroke-linejoin="round"></path>
    <path d="M271.67 243.334V83.75" stroke="#936A4E" stroke-width="2.5"
        stroke-linejoin="round"></path>
    <path d="M132 335v-71.666l8.333 6.666v36.667l30 21.667v35z" fill="#5D90DF"
        stroke="#4578C9" stroke-width="2.5" stroke-linejoin="round"></path>
    <path
        d="M283.669 185 213 227l7 5.5v24l63.669-39.833zM205.5 231.5l-65.164 38.501v36.666L212.5 261zM213 302l-42.664 28.001v35L213 337.5z"
        fill="#87B5EE" stroke="#4578C9" stroke-width="2.5" stroke-linejoin="round"></path>
    <path d="M313.669 236.668 220 297v37l93.669-58.999z" fill="#FEEEDC" stroke="#936A4E"
        stroke-width="2.5" stroke-linejoin="round"></path>
    <path
        d="M220 256.832v41L313.669 237l-30-20zm-79.664 49.836 30 23.333L213 302.5v-42zM212.5 227l-9.5-7 69.001-41.667L283.667 185zm-72.167 43L130 261.5l64.333-37.167L206 231z"
        fill="#6D9DE9" stroke="#4578C9" stroke-width="2.5" stroke-linejoin="round"></path>
    <path d="M220 388.5V330l129.25-86.127v56.414z" fill="#F1D1B1" stroke="#936A4E"
        stroke-width="2.5" stroke-linejoin="round"></path>
    <path d="m180.5 304 22-14.5v32zm168.75-59.791L220.5 329.5V280l92.5-59z" fill="#E9C19A"
        stroke="#936A4E" stroke-width="2.5" stroke-linejoin="round"></path>
    <path fill-rule="evenodd" clip-rule="evenodd"
        d="M213 405.5V237l-91.33-68.667V339.5zm-82-69.188V225.063s15.667-1.532 34 10.5 37.5 40 37.5 40v111.249z"
        fill="#fff"></path>
    <path
        d="M213 237h2.5a2.5 2.5 0 0 0-.998-1.998zm0 168.5-1.464 2.026a2.5 2.5 0 0 0 3.964-2.026zm-91.33-237.167 1.502-1.998a2.499 2.499 0 0 0-4.002 1.998zm0 171.167h-2.5c0 .803.385 1.556 1.036 2.026zM131 225.063l-.243-2.488a2.5 2.5 0 0 0-2.257 2.488zm0 111.249h-2.5a2.5 2.5 0 0 0 1.058 2.042zm71.5-60.749h2.5c0-.504-.153-.997-.438-1.413zm0 111.249-1.442 2.042a2.499 2.499 0 0 0 3.942-2.042zm8-149.812v168.5h5V237zm-90.332-66.669 91.33 68.667 3.004-3.996-91.33-68.667zM124.17 339.5V168.333h-5V339.5zm90.294 63.974-91.33-66-2.928 4.052 91.33 66zM128.5 225.063v111.249h5V225.063zm37.872 8.41c-9.487-6.226-18.313-8.96-24.803-10.132-3.243-.586-5.903-.781-7.771-.828a33 33 0 0 0-2.188.01q-.388.016-.603.032l-.17.013-.052.004-.017.002h-.006l-.003.001c-.001 0-.002 0 .241 2.488s.242 2.488.241 2.488l-.001.001h-.002q-.001 0 0 0l.016-.002.1-.007q.143-.011.454-.024a28 28 0 0 1 1.863-.008c1.642.041 4.045.215 7.01.75 5.927 1.071 14.101 3.586 22.947 9.392zm36.128 42.09 2.062-1.414-.001-.001-.004-.005-.011-.017-.045-.065-.17-.245a206 206 0 0 0-3.104-4.3 250 250 0 0 0-8.682-11.042c-7.115-8.534-16.683-18.773-26.173-25.001l-2.744 4.18c8.844 5.804 18.025 15.565 25.077 24.023a245 245 0 0 1 8.505 10.818 197 197 0 0 1 3.178 4.41l.039.056.009.013.002.003zm2.5 111.249V275.563h-5v111.249zm-75.442-48.458 71.5 50.5 2.884-4.084-71.5-50.5z"
        fill="#936A4E"></path>
</svg>